<svg xmlns="http://www.w3.org/2000/svg" version="1.1" xmlns:xlink="http://www.w3.org/1999/xlink" xmlns:svgjs="http://svgjs.dev/svgjs" width="1500" height="1500" viewBox="0 0 1500 1500"><rect width="1500" height="1500" fill="#000000"></rect><g transform="matrix(0.6666666666666666,0,0,0.6666666666666666,249.8851986593022,184.12523616734148)"><svg viewBox="0 0 218 247" data-background-color="#ececea" preserveAspectRatio="xMidYMid meet" height="1699" width="1500" xmlns="http://www.w3.org/2000/svg" xmlns:xlink="http://www.w3.org/1999/xlink"><g id="tight-bounds" transform="matrix(1,0,0,1,0.025026692272120954,-0.09999999999999432)"><svg viewBox="0 0 217.94994661545576 247.2" height="247.2" width="217.94994661545576"><g><svg viewBox="0 0 397.4975999999999 450.8439127694278" height="247.2" width="217.94994661545576"><g><rect width="397.4975999999999" height="8.523850343759502" x="0" y="225.07958206389907" fill="#ffffff" opacity="1" stroke-width="0" stroke="transparent" fill-opacity="1" class="rect-qz-0" data-fill-palette-color="primary" rx="1%" id="qz-0" data-palette-color="#d21a5f"></rect></g><g><rect width="397.4975999999999" height="8.523850343759502" x="0" y="244.76030458535425" fill="#ffffff" opacity="1" stroke-width="0" stroke="transparent" fill-opacity="1" class="rect-qz-1" data-fill-palette-color="primary" rx="1%" id="qz-1" data-palette-color="#d21a5f"></rect></g><g transform="matrix(1,0,0,1,0.9887999999999693,275.5978992845051)"><svg viewBox="0 0 395.52 175.24601348492266" height="175.24601348492266" width="395.52"><g id="textblocktransform"><svg viewBox="0 0 395.52 175.24601348492266" height="175.24601348492266" width="395.52" id="textblock"><g><svg viewBox="0 0 395.52 94.51932579081044" height="94.51932579081044" width="395.52"><g transform="matrix(1,0,0,1,0,0)"><svg width="395.52" viewBox="1.3 -38.05 216.53 51.74999999999999" height="94.51932579081044" data-palette-color="#d21a5f"><path d="M10.95-11.2Q14.05-11.85 15.58-13.7 17.1-15.55 17.1-17.28 17.1-19 16.18-19.63 15.25-20.25 14.15-20.25L14.15-20.25Q11.8-20.25 10.03-17.63 8.25-15 8.25-11.38 8.25-7.75 9.98-5.98 11.7-4.2 14.25-4.2L14.25-4.2Q18-4.2 21.45-6.8 24.9-9.4 27.05-13.6L27.05-13.6Q28.15-12.55 29.05-11L29.05-11Q27.4-7.25 23.2-3.65L23.2-3.65Q21.1-1.9 18.23-0.8 15.35 0.3 12.3 0.3L12.3 0.3Q7.3 0.3 4.4-2.75L4.4-2.75Q1.3-6.05 1.3-11.2 1.3-16.35 5.18-20.2 9.05-24.05 14.45-24.05L14.45-24.05Q18.3-24.05 20.7-22.38 23.1-20.7 23.15-17.85L23.15-17.85Q23.15-14 20.08-11.6 17-9.2 11.65-8.25L11.65-8.25 10.95-11.2ZM30.45-24.1L30.45-24.1Q33.7-24.1 34.25-22.45L34.25-22.45Q36.6-24.1 40.2-24.1 43.8-24.1 46.4-21.15 49-18.2 49-14.25L49-14.25Q49-13.7 48.95-13.1L48.95-13.1Q48.4-6.55 44.55-3.13 40.7 0.3 34.5 0.3L34.5 0.3Q33.1 0.3 31.45-0.05L31.45-0.05 29.85 13.7 23.3 13.7Q26.5-13.85 27.6-23.7L27.6-23.7Q28.65-24.1 30.45-24.1ZM41.95-13.9L41.95-13.9Q41.95-16.1 40.95-17.8 39.95-19.5 37.85-19.5L37.85-19.5Q35-19.5 33.5-15.8L33.5-15.8Q32.5-8.4 32.35-7.2L32.35-7.2Q32.3-5.7 33.3-4.95 34.3-4.2 35.75-4.2L35.75-4.2Q38.3-4.2 39.95-6.5L39.95-6.5Q41.95-9.35 41.95-13.9ZM55.2-36.83Q56.35-38 58-38 59.65-38 60.82-36.83 62-35.65 62-34 62-32.35 60.82-31.2 59.65-30.05 58-30.05 56.35-30.05 55.2-31.2 54.05-32.35 54.05-34 54.05-35.65 55.2-36.83ZM53.15-22.15Q53.65-23.05 55.05-23.53 56.45-24 57.82-24 59.2-24 60.25-23.65L60.25-23.65Q58.3-8.6 58.3-8.45L58.3-8.45Q58.05-7.45 58.05-6.78 58.05-6.1 58.15-5.6L58.15-5.6Q58.35-4.3 59.97-4.3 61.6-4.3 62.97-6.43 64.34-8.55 65.05-11.25L65.05-11.25Q65.4-11.05 66.15-10.05 66.9-9.05 67.05-8.55L67.05-8.55Q66.05-4.55 63.65-2.1L63.65-2.1Q61.25 0.35 57.9 0.35 54.55 0.35 52.92-1.3 51.3-2.95 51.3-5.55L51.3-5.55Q51.3-6.1 51.35-6.7L51.35-6.7 53.15-22.15ZM78.59-16.95L78.59-16.95Q78.59-20.2 75.69-20.2L75.69-20.2Q73.54-20.2 71.84-17.75L71.84-17.75Q70.04-15.1 70.04-11.55 70.04-8 71.62-6.08 73.19-4.15 75.94-4.15L75.94-4.15Q79.24-4.15 82.92-6.85 86.59-9.55 88.84-13.55L88.84-13.55Q89.84-12.8 90.79-10.8L90.79-10.8Q89.34-7.9 85.39-4.3L85.39-4.3Q83.34-2.4 80.29-1.1L80.29-1.1Q76.99 0.3 73.69 0.3L73.69 0.3Q69.24 0.3 66.17-2.75 63.09-5.8 63.09-10.7L63.09-10.7Q63.09-16.65 67.09-20.35 71.09-24.05 76.04-24.05L76.04-24.05Q79.89-24.05 82.14-22.45 84.39-20.85 84.39-18.25L84.39-18.25Q84.39-16.55 83.19-15.3L83.19-15.3Q80.99-13.1 77.84-13.1L77.84-13.1Q78.59-15.6 78.59-16.95ZM93.12 0.35Q90.04 0.35 88.29-1.38 86.54-3.1 86.54-6.1L86.54-6.1Q86.54-6.9 89.24-29.85L89.24-29.85Q89.94-35.75 92.99-37.3L92.99-37.3Q94.39-38.05 96.34-38.05L96.34-38.05Q102.94-38.05 102.94-31.95L102.94-31.95Q102.94-31.45 102.89-30.9L102.89-30.9Q102.39-24.2 94.49-17.25L94.49-17.25Q94.24-14.8 93.94-12.5L93.94-12.5Q93.34-7.35 93.34-6.8L93.34-6.8Q93.34-4.2 95.59-4.2L95.59-4.2Q98.04-4.2 100.17-7.03 102.29-9.85 103.44-14.25L103.44-14.25Q103.89-14.1 104.69-13.43 105.49-12.75 105.79-12.25L105.79-12.25Q104.99-8.1 102.19-4.3L102.19-4.3Q100.79-2.35 98.64-1.1L98.64-1.1Q96.19 0.35 93.12 0.35ZM95.19-23.75L95.04-22.25Q99.64-27.3 99.64-31.3L99.64-31.3Q99.64-33.7 97.84-33.7L97.84-33.7Q96.69-33.6 96.32-32.2 95.94-30.8 95.62-27.65 95.29-24.5 95.19-23.75L95.19-23.75ZM114.79-24.05L114.79-24.05Q119.39-24.05 122.46-21.1 125.54-18.15 125.54-13.9L125.54-13.9Q125.54-7.45 121.76-3.58 117.99 0.3 112.64 0.3 107.29 0.3 104.16-2.75 101.04-5.8 101.04-10.3L101.04-10.3Q101.04-16.6 104.89-20.3L104.89-20.3Q108.79-24.05 114.79-24.05ZM113.81-20Q111.44-20 109.84-17.3 108.24-14.6 108.09-10.5L108.09-10.5Q108.09-7.6 109.26-5.7 110.44-3.8 112.84-3.8 115.24-3.8 116.86-6.45 118.49-9.1 118.49-12.5 118.49-15.9 117.34-17.9L117.34-17.9Q116.19-20 113.81-20ZM138.99-34.8L138.99-34.8Q138.99-34.5 137.64-24.05L137.64-24.05 144.99-24.05 144.99-20.2 137.14-20.2 136.99-18.95Q142.84-14.05 142.84-8.25L142.84-8.25Q142.84-3.7 140.51-1.7 138.19 0.3 134.94 0.3 131.69 0.3 130.19-1.43 128.69-3.15 128.69-5.6L128.69-5.6Q128.69-6.15 128.79-6.8L128.79-6.8 130.34-20.1 130.14-20.2 126.09-20.2Q126.04-20.7 126.04-21.83 126.04-22.95 126.49-24.05L126.49-24.05 130.79-24.05 132.39-37.65Q133.44-38.05 135.19-38.05L135.19-38.05Q138.99-38.05 138.99-34.8ZM139.49-8.3L139.49-8.3Q139.49-11.75 136.49-15.1L136.49-15.1Q135.59-7.65 135.59-6.5L135.59-6.5Q135.59-4.25 137.04-4.25L137.04-4.25Q138.09-4.25 138.79-5.23 139.49-6.2 139.49-8.3ZM158.53-5.7L158.53-5.7 159.73-16.75Q159.73-18.1 159.03-19 158.33-19.9 156.78-19.9 155.23-19.9 154.16-18.68 153.08-17.45 152.58-15.45L152.58-15.45Q152.23-12.6 151.53-7.13 150.83-1.65 150.63 0L150.63 0 143.98 0Q147.58-30.65 148.33-37.65L148.33-37.65Q149.38-38.05 151.18-38.05L151.18-38.05Q155.08-38.05 155.08-35.75L155.08-35.75 155.08-35.45Q154.23-27.6 153.28-21.65L153.28-21.65Q155.93-24.05 159.28-24.05 162.63-24.05 164.58-22.35 166.53-20.65 166.53-18.05L166.53-18.05Q166.53-17.35 166.23-15.45L166.23-15.45Q165.08-7.95 165.08-6.65L165.08-6.65Q165.08-4.3 166.63-4.3L166.63-4.3Q167.93-4.3 169.41-6.03 170.88-7.75 171.78-11.35L171.78-11.35Q173.48-9.55 173.83-8.5L173.83-8.5Q171.23 0.2 164.63 0.2L164.63 0.2Q161.53 0.2 160.03-1.7 158.53-3.6 158.53-5.7ZM179.03-11.2Q182.13-11.85 183.66-13.7 185.18-15.55 185.18-17.28 185.18-19 184.26-19.63 183.33-20.25 182.23-20.25L182.23-20.25Q179.88-20.25 178.11-17.63 176.33-15 176.33-11.38 176.33-7.75 178.06-5.98 179.78-4.2 182.33-4.2L182.33-4.2Q186.08-4.2 189.53-6.8 192.98-9.4 195.13-13.6L195.13-13.6Q196.23-12.55 197.13-11L197.13-11Q195.48-7.25 191.28-3.65L191.28-3.65Q189.18-1.9 186.31-0.8 183.43 0.3 180.38 0.3L180.38 0.3Q175.38 0.3 172.48-2.75L172.48-2.75Q169.38-6.05 169.38-11.2 169.38-16.35 173.26-20.2 177.13-24.05 182.53-24.05L182.53-24.05Q186.38-24.05 188.78-22.38 191.18-20.7 191.23-17.85L191.23-17.85Q191.23-14 188.16-11.6 185.08-9.2 179.73-8.25L179.73-8.25 179.03-11.2ZM213.88-15.3L213.88-15.3Q217.83-12.4 217.83-8.45 217.83-4.5 214.73-2.1 211.63 0.3 206.93 0.3L206.93 0.3Q203.88 0.3 201.85-1.23 199.83-2.75 199.83-5 199.83-7.25 201.33-8.58 202.83-9.9 205.08-10.2L205.08-10.2Q204.03-8.7 204.03-7.33 204.03-5.95 204.98-5.1L204.98-5.1Q205.93-4.25 207.38-4.25 208.83-4.25 209.78-5.33 210.73-6.4 210.73-7.8L210.73-7.8Q210.73-10.1 208.58-11.9L208.58-11.9Q207.28-12.95 205.78-13.88 204.28-14.8 204.18-14.85L204.18-14.85Q203.98-15 203.78-15.1L203.78-15.1Q202.88-14.05 201.18-12.23 199.48-10.4 198.48-9.3L198.48-9.3Q195.68-6.25 195.33-4.2L195.33-4.2Q195.23-3.8 195.23-2.68 195.23-1.55 195.9-0.35 196.58 0.85 197.53 1.45 198.48 2.05 199.4 2.43 200.33 2.8 201 2.95 201.68 3.1 201.68 3.15L201.68 3.15Q201.68 3.5 200.58 3.95L200.58 3.95Q198.53 4.7 196.3 4.7 194.08 4.7 191.98 3.1L191.98 3.1Q189.13 0.9 189.13-2.75L189.13-2.75Q189.13-5 190.28-7.2L190.28-7.2Q192.33-11.1 199.88-17.9L199.88-17.9Q198.03-19.75 198.03-21.85 198.03-23.95 199.6-25.4 201.18-26.85 203.33-26.85L203.33-26.85Q205.28-26.85 206.73-25.3L206.73-25.3Q207.68-24.25 207.68-22.65 207.68-21.05 206.63-19.05L206.63-19.05Q211.98-16.65 213.88-15.3ZM203.03-20.95L203.03-20.95Q204.23-22.2 204.23-22.75L204.23-22.75Q204.23-24 203.13-24.1L203.13-24.1Q201.88-24.1 201.88-22.7L201.88-22.7Q201.88-21.85 203.03-20.95Z" opacity="1" transform="matrix(1,0,0,1,0,0)" fill="#ffffff" class="wordmark-text-0" data-fill-palette-color="primary" id="text-0"></path></svg></g></svg></g><g transform="matrix(1,0,0,1,0,116.8330701462018)"><svg viewBox="0 0 395.52 58.41294333872085" height="58.41294333872085" width="395.52"><g transform="matrix(1,0,0,1,0,0)"><svg width="395.52" viewBox="1.27 -39.11 353.43 52.199999999999996" height="58.41294333872085" data-palette-color="#303433"><path d="M10.52 0L1.27-25.88 7.81-25.88 12.84-9.3 13.96-4.44 14.45-4.44 15.55-9.3 20.63-25.88 26.22-25.88 12.33 13.09 6.86 13.09 12.33 0 10.52 0ZM42.11 0.49L42.11 0.49Q39.06 0.49 36.73-0.54 34.4-1.56 32.81-3.31 31.22-5.05 30.4-7.35 29.59-9.64 29.59-12.21L29.59-12.21Q29.59-15.16 30.64-17.74 31.69-20.31 33.58-22.23 35.47-24.15 38.08-25.26 40.69-26.37 43.82-26.37L43.82-26.37Q46.87-26.37 49.21-25.34 51.56-24.32 53.15-22.56 54.73-20.8 55.55-18.49 56.37-16.19 56.37-13.62L56.37-13.62Q56.37-10.64 55.31-8.07 54.24-5.49 52.34-3.59 50.44-1.68 47.82-0.6 45.21 0.49 42.11 0.49ZM43.14-3.74L43.14-3.74Q44.7-3.74 45.99-4.38 47.29-5.03 48.21-6.19 49.14-7.35 49.65-8.96 50.17-10.57 50.17-12.52L50.17-12.52Q50.17-14.43 49.67-16.16 49.17-17.9 48.21-19.23 47.26-20.56 45.89-21.35 44.53-22.14 42.79-22.14L42.79-22.14Q41.21-22.14 39.91-21.48 38.62-20.83 37.7-19.65 36.79-18.48 36.28-16.86 35.76-15.23 35.76-13.31L35.76-13.31Q35.76-11.38 36.26-9.64 36.76-7.91 37.72-6.59 38.67-5.27 40.03-4.5 41.4-3.74 43.14-3.74ZM63.32-8.62L63.32-25.88 69.23-25.88 69.23-9.55Q69.23-8.3 69.57-7.29 69.91-6.27 70.52-5.54 71.13-4.81 71.99-4.41 72.84-4 73.87-4L73.87-4Q74.75-4 75.59-4.3 76.43-4.59 77.21-5.07 77.99-5.54 78.7-6.16 79.41-6.79 80.05-7.47L80.05-7.47 80.05-25.88 85.95-25.88 85.95 0 81.17 0 80.29-4.37Q79.41-3.56 78.39-2.7 77.36-1.83 76.21-1.12 75.06-0.42 73.78 0.04 72.5 0.49 71.11 0.49L71.11 0.49Q69.52 0.49 68.11-0.15 66.69-0.78 65.63-1.95 64.57-3.13 63.94-4.81 63.32-6.49 63.32-8.62L63.32-8.62ZM94.47 0L94.47-25.88 99.26-25.88 100.09-18.16Q100.43-18.8 100.79-19.47 101.16-20.14 101.53-20.76 101.89-21.39 102.21-21.9 102.53-22.41 102.75-22.75L102.75-22.75Q103.26-23.51 103.91-24.18 104.55-24.85 105.31-25.33 106.07-25.81 106.95-26.09 107.82-26.37 108.85-26.37L108.85-26.37Q109.56-26.37 110.27-26.2 110.97-26.03 111.46-25.66L111.46-25.66 110.83-20.21Q110.39-20.34 109.8-20.37 109.22-20.41 108.75-20.41L108.75-20.41Q107.19-20.41 105.97-19.96 104.75-19.51 103.76-18.71 102.77-17.92 101.95-16.85 101.13-15.77 100.38-14.53L100.38-14.53 100.38 0 94.47 0ZM149.54-5.32L149.54-2.37Q148.47-1.61 147.22-1.07 145.98-0.54 144.66-0.18 143.34 0.17 142.03 0.33 140.73 0.49 139.55 0.49L139.55 0.49Q136.84 0.49 134.51-0.34 132.18-1.17 130.46-2.78 128.74-4.39 127.76-6.75 126.79-9.11 126.79-12.16L126.79-12.16Q126.79-15.41 127.88-18.04 128.98-20.68 130.83-22.52 132.67-24.37 135.1-25.37 137.53-26.37 140.16-26.37L140.16-26.37Q142.36-26.37 144.25-25.65 146.15-24.93 147.53-23.51 148.9-22.09 149.69-19.97 150.47-17.85 150.47-15.04L150.47-15.04Q150.47-14.36 150.41-13.59 150.35-12.82 150.2-12.08L150.2-12.08 132.91-12.08Q132.91-10.11 133.61-8.59 134.31-7.08 135.57-6.07 136.84-5.05 138.63-4.53 140.41-4 142.56-4L142.56-4Q143.17-4 143.99-4.05 144.8-4.1 145.73-4.25 146.66-4.39 147.64-4.65 148.61-4.91 149.54-5.32L149.54-5.32ZM132.91-14.97L144.97-14.97Q144.97-16.75 144.52-18.09 144.07-19.43 143.29-20.34 142.51-21.24 141.47-21.69 140.43-22.14 139.24-22.14L139.24-22.14Q137.89-22.14 136.75-21.61 135.6-21.07 134.74-20.1 133.89-19.14 133.4-17.82 132.91-16.5 132.91-14.97L132.91-14.97ZM163.5-18.46L163.5-4.76Q164.11-4.47 164.81-4.27 165.5-4.08 166.16-3.96 166.82-3.83 167.43-3.78 168.04-3.74 168.48-3.74L168.48-3.74Q170.36-3.74 171.87-4.48 173.39-5.22 174.46-6.51 175.54-7.79 176.11-9.5 176.68-11.21 176.68-13.16L176.68-13.16Q176.68-14.99 176.21-16.58 175.73-18.16 174.88-19.34 174.02-20.51 172.8-21.18 171.58-21.85 170.12-21.85L170.12-21.85Q168.36-21.85 166.66-20.91 164.97-19.97 163.5-18.46L163.5-18.46ZM162.33-25.88L163.21-21.53Q164.09-22.36 165.11-23.22 166.14-24.07 167.32-24.77 168.51-25.46 169.86-25.92 171.22-26.37 172.75-26.37L172.75-26.37Q175.12-26.37 176.99-25.33 178.86-24.29 180.15-22.57 181.44-20.85 182.14-18.62 182.84-16.38 182.84-14.01L182.84-14.01Q182.84-10.89 181.69-8.23 180.54-5.57 178.56-3.63 176.59-1.68 173.93-0.6 171.26 0.49 168.26 0.49L168.26 0.49Q167.68 0.49 167.03 0.45 166.38 0.42 165.76 0.34 165.14 0.27 164.55 0.16 163.96 0.05 163.5-0.1L163.5-0.1 163.5 13.09 157.59 13.09 157.59-25.88 162.33-25.88ZM189.77 0L189.77-25.88 195.7-25.88 195.7 0 189.77 0ZM192.72-30.98L192.72-30.98Q191.94-30.98 191.29-31.24 190.64-31.49 190.17-31.93 189.69-32.37 189.44-32.98 189.18-33.59 189.18-34.3L189.18-34.3Q189.18-35.03 189.46-35.66 189.74-36.28 190.24-36.76 190.74-37.23 191.41-37.5 192.09-37.77 192.87-37.77L192.87-37.77Q193.62-37.77 194.26-37.5 194.89-37.23 195.36-36.78 195.82-36.33 196.09-35.71 196.36-35.08 196.36-34.38L196.36-34.38Q196.36-33.64 196.08-33.02 195.8-32.4 195.3-31.95 194.8-31.49 194.14-31.24 193.48-30.98 192.72-30.98ZM222.96-5.32L222.96-2.37Q221.23-0.98 219.11-0.24 216.98 0.49 214.54 0.49L214.54 0.49Q211.81 0.49 209.61-0.43 207.41-1.34 205.87-2.97 204.34-4.59 203.51-6.85 202.68-9.11 202.68-11.82L202.68-11.82Q202.68-15.01 203.8-17.69 204.92-20.36 206.86-22.29 208.8-24.22 211.44-25.29 214.08-26.37 217.11-26.37L217.11-26.37Q217.76-26.37 218.52-26.31 219.28-26.25 220.07-26.12 220.87-26 221.63-25.79 222.4-25.59 223.06-25.29L223.06-25.29 222.01-20.75 221.5-20.51Q221.06-20.83 220.46-21.13 219.86-21.44 219.18-21.66 218.5-21.88 217.76-22.01 217.03-22.14 216.32-22.14L216.32-22.14Q214.76-22.14 213.41-21.53 212.05-20.92 211.04-19.75 210.03-18.58 209.44-16.88 208.85-15.19 208.85-13.04L208.85-13.04Q208.85-10.79 209.49-9.11 210.12-7.42 211.25-6.29 212.37-5.15 213.91-4.58 215.45-4 217.25-4L217.25-4Q218.37-4 219.82-4.27 221.26-4.54 222.96-5.32L222.96-5.32ZM239.41-1.22L240.46-5.66 240.9-5.93Q241.85-5.42 242.89-5 243.93-4.59 244.95-4.31 245.98-4.03 246.96-3.88 247.93-3.74 248.79-3.74L248.79-3.74Q251.01-3.74 252.27-4.66 253.52-5.59 253.52-7.03L253.52-7.03Q253.52-8.01 252.95-8.64 252.38-9.28 251.44-9.73 250.5-10.18 249.3-10.52 248.1-10.86 246.85-11.24 245.59-11.62 244.39-12.11 243.2-12.6 242.26-13.35 241.32-14.11 240.74-15.2 240.17-16.28 240.17-17.87L240.17-17.87Q240.17-19.65 240.94-21.22 241.71-22.78 243.13-23.91 244.56-25.05 246.6-25.71 248.64-26.37 251.18-26.37L251.18-26.37Q251.81-26.37 252.66-26.32 253.5-26.27 254.41-26.16 255.33-26.05 256.26-25.88 257.18-25.71 257.99-25.44L257.99-25.44 256.92-21.07 256.38-20.75Q255.65-21.12 254.8-21.39 253.96-21.66 253.12-21.81 252.28-21.97 251.48-22.06 250.69-22.14 250.08-22.14L250.08-22.14Q247.93-22.14 246.72-21.29 245.52-20.43 245.52-18.99L245.52-18.99Q245.52-17.99 246.1-17.35 246.69-16.7 247.63-16.25 248.57-15.8 249.79-15.47 251.01-15.14 252.27-14.76 253.52-14.38 254.74-13.89 255.96-13.4 256.9-12.65 257.84-11.89 258.43-10.79 259.02-9.69 259.02-8.08L259.02-8.08Q259.02-6.27 258.23-4.7 257.45-3.13 256.01-1.98 254.57-0.83 252.55-0.17 250.52 0.49 248.05 0.49L248.05 0.49Q246.03 0.49 243.76 0.05 241.49-0.39 239.41-1.22L239.41-1.22ZM268.09-7.15L268.09-21.66 262.89-21.66 263.33-24.44Q265.26-24.93 266.42-25.54 267.58-26.15 268.35-27.04 269.12-27.93 269.69-29.21 270.27-30.49 271.02-32.32L271.02-32.32 273.86-32.32 273.86-25.88 283.16-25.88 282.11-21.66 274.03-21.66 274.03-8.33Q274.03-7.13 274.37-6.31 274.71-5.49 275.34-4.98 275.98-4.47 276.87-4.24 277.76-4 278.88-4L278.88-4Q279.96-4 281.02-4.2 282.08-4.39 283.04-4.76L283.04-4.76 283.04-1.78Q281.38-0.66 279.48-0.09 277.59 0.49 275.66 0.49L275.66 0.49Q271.98 0.49 270.03-1.51 268.09-3.52 268.09-7.15L268.09-7.15ZM296.78 0L287.52-25.88 294.07-25.88 299.1-9.3 300.22-4.44 300.71-4.44 301.81-9.3 306.88-25.88 312.47-25.88 298.58 13.09 293.11 13.09 298.58 0 296.78 0ZM318.18 0L318.18-39.11 324.09-39.11 324.09 0 318.18 0ZM353.77-5.32L353.77-2.37Q352.7-1.61 351.46-1.07 350.21-0.54 348.89-0.18 347.57 0.17 346.27 0.33 344.96 0.49 343.79 0.49L343.79 0.49Q341.08 0.49 338.75-0.34 336.42-1.17 334.7-2.78 332.97-4.39 332-6.75 331.02-9.11 331.02-12.16L331.02-12.16Q331.02-15.41 332.12-18.04 333.22-20.68 335.06-22.52 336.9-24.37 339.33-25.37 341.76-26.37 344.4-26.37L344.4-26.37Q346.6-26.37 348.49-25.65 350.38-24.93 351.76-23.51 353.14-22.09 353.92-19.97 354.7-17.85 354.7-15.04L354.7-15.04Q354.7-14.36 354.64-13.59 354.58-12.82 354.43-12.08L354.43-12.08 337.15-12.08Q337.15-10.11 337.84-8.59 338.54-7.08 339.81-6.07 341.08-5.05 342.86-4.53 344.64-4 346.79-4L346.79-4Q347.4-4 348.22-4.05 349.04-4.1 349.97-4.25 350.89-4.39 351.87-4.65 352.85-4.91 353.77-5.32L353.77-5.32ZM337.15-14.97L349.21-14.97Q349.21-16.75 348.76-18.09 348.31-19.43 347.52-20.34 346.74-21.24 345.71-21.69 344.67-22.14 343.47-22.14L343.47-22.14Q342.13-22.14 340.98-21.61 339.83-21.07 338.98-20.1 338.13-19.14 337.64-17.82 337.15-16.5 337.15-14.97L337.15-14.97Z" opacity="1" transform="matrix(1,0,0,1,0,0)" fill="#ffffff" class="slogan-text-1" data-fill-palette-color="secondary" id="text-1"></path></svg></g></svg></g></svg></g></svg></g><g transform="matrix(1,0,0,1,76.53311999999997,0)"><svg viewBox="0 0 244.43135999999998 202.7658377085077" height="202.7658377085077" width="244.43135999999998"><g><svg xmlns="http://www.w3.org/2000/svg" xmlns:xlink="http://www.w3.org/1999/xlink" version="1.1" x="0" y="0" viewBox="5.001412939782102 12.67100000000001 89.99916692630474 74.658" enable-background="new 0 0 100 100" xml:space="preserve" height="202.7658377085077" width="244.43135999999998" class="icon-icon-0" data-fill-palette-color="accent" id="icon-0"><g fill="#4e5a5d" data-fill-palette-color="accent"><circle cx="34.33" cy="38.562" r="2.0" fill="#ffffff" data-fill-palette-color="accent"></circle><circle cx="42.331" cy="44.589" r="2.0" fill="#ffffff" data-fill-palette-color="accent"></circle><path d="M59.575 46.579c1.099 0 1.99-0.893 1.99-1.99 0-1.097-0.894-1.989-1.99-1.989-1.096 0-1.987 0.893-1.987 1.989C57.588 45.687 58.479 46.579 59.575 46.579z" fill="#ffffff" data-fill-palette-color="accent"></path><circle cx="50.934" cy="38.562" r="2.0" fill="#ffffff" data-fill-palette-color="accent"></circle><path d="M67.536 40.553c1.099 0 1.991-0.893 1.991-1.991 0-1.098-0.894-1.989-1.991-1.989s-1.989 0.893-1.989 1.989C65.547 39.659 66.439 40.553 67.536 40.553z" fill="#ffffff" data-fill-palette-color="accent"></path><circle cx="37.11" cy="51.348" r="1.8" fill="#ffffff" data-fill-palette-color="accent"></circle><circle cx="44.25" cy="57.878" r="1.8" fill="#ffffff" data-fill-palette-color="accent"></circle><path d="M57.647 59.639c0.973 0 1.763-0.789 1.763-1.761s-0.79-1.76-1.763-1.76c-0.972 0-1.761 0.788-1.761 1.76S56.676 59.639 57.647 59.639z" fill="#ffffff" data-fill-palette-color="accent"></path><circle cx="50.934" cy="51.348" r="1.8" fill="#ffffff" data-fill-palette-color="accent"></circle><circle cx="64.756" cy="51.348" r="1.8" fill="#ffffff" data-fill-palette-color="accent"></circle><circle cx="38.035" cy="64.149" r="1.8" fill="#ffffff" data-fill-palette-color="accent"></circle><circle cx="44.25" cy="68.833" r="1.8" fill="#ffffff" data-fill-palette-color="accent"></circle><path d="M57.647 70.594c0.973 0 1.763-0.79 1.763-1.762 0-0.971-0.79-1.761-1.763-1.761-0.972 0-1.761 0.79-1.761 1.761C55.887 69.804 56.676 70.594 57.647 70.594z" fill="#ffffff" data-fill-palette-color="accent"></path><circle cx="50.934" cy="64.149" r="1.8" fill="#ffffff" data-fill-palette-color="accent"></circle><circle cx="63.832" cy="64.149" r="1.8" fill="#ffffff" data-fill-palette-color="accent"></circle><circle cx="38.035" cy="74.428" r="1.8" fill="#ffffff" data-fill-palette-color="accent"></circle><circle cx="44.25" cy="79.109" r="1.8" fill="#ffffff" data-fill-palette-color="accent"></circle><path d="M57.647 80.872c0.973 0 1.763-0.791 1.763-1.763 0-0.971-0.79-1.761-1.763-1.761-0.972 0-1.761 0.79-1.761 1.761C55.887 80.081 56.676 80.872 57.647 80.872z" fill="#ffffff" data-fill-palette-color="accent"></path><circle cx="50.934" cy="74.428" r="1.8" fill="#ffffff" data-fill-palette-color="accent"></circle><circle cx="63.832" cy="74.428" r="1.8" fill="#ffffff" data-fill-palette-color="accent"></circle><path d="M94.105 39.561l-4.417-3.897c-0.775-0.684-2.144-1.492-3.116-1.842l-9.085-3.266c-0.88-0.315-1.953-0.203-2.828 0.23-0.882-0.514-2.192-1.026-3.121-1.208l-4.405-0.86c0.013-0.049 0.037-0.093 0.043-0.145 0.175-1.508 0.36-2.252 0.731-3.136 1.771-0.274 5.421-1.309 6.084-5.164 0.271-1.578 0.003-2.982-0.776-4.063-0.805-1.118-2.151-1.873-3.791-2.124-2.823-0.44-5.388 1.395-6.234 3.414-0.207 0.493 0.025 1.059 0.518 1.265 0.488 0.205 1.06-0.024 1.266-0.519 0.547-1.304 2.285-2.538 4.159-2.25 1.121 0.172 2.015 0.649 2.515 1.344 0.476 0.659 0.623 1.536 0.439 2.604-0.5 2.909-3.616 3.514-4.934 3.639-0.344 0.034-0.643 0.246-0.786 0.558-0.646 1.406-0.896 2.349-1.11 4.208l-3.194-0.624c-1.021-0.201-2.226 0.18-3.043 0.875-2.521-1.089-5.003-1.716-7.464-1.875-0.018-1.13 0.063-1.809 0.262-2.605 1.71-0.54 5.159-2.115 5.231-6.026 0.028-1.601-0.449-2.948-1.383-3.899-0.967-0.983-2.41-1.524-4.067-1.524-2.858 0-5.116 2.195-5.646 4.319-0.129 0.518 0.186 1.042 0.704 1.171 0.516 0.13 1.042-0.185 1.172-0.703 0.344-1.372 1.882-2.854 3.77-2.854 1.136 0 2.089 0.336 2.688 0.946 0.57 0.58 0.85 1.425 0.829 2.509-0.055 2.951-3.043 4.022-4.325 4.346-0.334 0.084-0.597 0.34-0.693 0.672-0.369 1.29-0.495 2.193-0.477 3.625-2.675 0.094-5.335 0.738-8.01 1.937-0.817-0.719-2.044-1.115-3.086-0.911l-2.649 0.517c-0.115-1.025-0.103-1.683 0.006-2.456 1.643-0.716 4.908-2.644 4.569-6.542-0.139-1.594-0.755-2.884-1.782-3.731-1.062-0.878-2.555-1.269-4.206-1.091-2.842 0.299-4.857 2.72-5.161 4.887-0.075 0.529 0.294 1.017 0.823 1.091 0.524 0.075 1.018-0.293 1.091-0.823 0.197-1.401 1.572-3.036 3.449-3.234 1.128-0.119 2.114 0.116 2.773 0.66 0.628 0.518 0.993 1.328 1.087 2.408 0.256 2.941-2.604 4.319-3.845 4.775-0.324 0.119-0.559 0.401-0.62 0.74-0.233 1.331-0.263 2.244-0.09 3.687l-4.922 0.962c-1.014 0.198-2.487 0.79-3.357 1.348l-0.098 0.063c-0.802-0.366-1.75-0.468-2.554-0.22l-9.229 2.833c-0.987 0.303-2.393 1.047-3.198 1.693l-4.596 3.686c-1.098 0.881-1.343 2.542-0.547 3.702l4.174 6.088c0.767 1.118 2.359 1.614 3.627 1.127l1.874-0.722c0.156-0.061 0.319-0.057 0.458 0.012 0.138 0.067 0.24 0.194 0.289 0.355 0.034 0.113 3.388 11.452 4.258 19.708 0.857 8.133-1.259 15.118-1.281 15.188-0.219 0.708-0.116 1.43 0.28 1.98 0.396 0.55 1.049 0.876 1.788 0.893 0.025 0 0.708 0.017 1.896 0.017 3.245 0 10.257-0.11 17.906-0.916 3.222-0.339 6.767-0.844 10.532-1.497 0.767-0.004 1.524-0.016 2.271-0.032 1.236 0.236 2.456 0.524 3.646 0.707 10.386 1.593 19.646 1.673 19.738 1.673 0.02 0 0.039 0 0.061 0 0.706 0 1.35-0.352 1.773-0.86 0.437-0.522 0.602-1.265 0.453-1.98-0.017-0.083-1.71-8.373-0.65-15.274 1.074-6.997 5.173-19.375 5.214-19.5 0.065-0.198 0.189-0.293 0.282-0.333 0.095-0.041 0.245-0.072 0.436 0.013l2.834 1.278c0.011 0.004 0.023 0.002 0.034 0.007 0.087 0.035 0.175 0.052 0.268 0.061 0.026 0.003 0.055 0.015 0.084 0.015 0.003 0 0.007 0.002 0.011 0.002 0.028 0 0.057-0.017 0.085-0.019 0.098-0.01 0.195-0.024 0.287-0.062 0.044-0.019 0.079-0.05 0.119-0.074 0.075-0.045 0.145-0.093 0.206-0.157 0.015-0.014 0.032-0.02 0.045-0.034l5.921-7.073C95.304 42.175 95.179 40.51 94.105 39.561zM57.637 30.11c-1.229 1.2-3.74 3.093-7.344 3.093-3.551 0-6.057-1.863-7.304-3.064C47.891 28.095 52.6 28.085 57.637 30.11zM29.418 31.476l9.477-1.851c0.561-0.11 1.314 0.221 1.617 0.644 0.142 0.199 3.547 4.868 9.781 4.868 6.236 0 9.642-4.669 9.783-4.868 0.303-0.423 1.06-0.757 1.617-0.644l9.477 1.851c0.769 0.15 2.023 0.654 2.683 1.078l4.955 3.182c0.328 0.21 0.434 0.667 0.231 0.999l-3.92 6.47c-0.24 0.396-0.926 0.668-1.369 0.542l-1.4-0.39c-0.226-0.063-0.456-0.095-0.685-0.095-1.189 0-2.199 0.863-2.402 2.052-0.092 0.533-2.225 13.134-2.225 20.382 0 7.335 2.952 15.322 3.078 15.658 0.049 0.132 0.051 0.245 0.005 0.322-0.047 0.075-0.147 0.127-0.286 0.146-0.092 0.012-9.161 1.163-19.542 1.163-10.378 0-19.45-1.151-19.541-1.165-0.126-0.016-0.219-0.058-0.251-0.116-0.033-0.058-0.022-0.16 0.028-0.277 0.123-0.288 3.021-7.142 3.021-15.73 0-8.484-2.112-19.919-2.202-20.401-0.225-1.204-1.228-2.044-2.439-2.044-0.224 0-0.447 0.03-0.667 0.088l-1.94 0.52c-0.433 0.117-1.073-0.157-1.288-0.553l-3.513-6.492c-0.193-0.356-0.062-0.86 0.279-1.079l4.956-3.183C27.395 32.129 28.649 31.625 29.418 31.476zM30.272 74.499c-0.46 0.049-0.655-0.063-1.014-0.267-0.462-0.264-1.098-0.625-2.171-0.511-1.076 0.112-1.62 0.597-2.018 0.948-0.307 0.273-0.478 0.424-0.936 0.473-0.458 0.048-0.655-0.064-1.014-0.268-0.231-0.132-0.503-0.286-0.854-0.396 0.011-0.397 0.018-0.8 0.018-1.211 0.388 0.217 0.891 0.466 1.656 0.466 0.125 0 0.257-0.008 0.396-0.021 1.075-0.112 1.62-0.596 2.017-0.948 0.308-0.272 0.478-0.424 0.936-0.473 0.461-0.044 0.657 0.064 1.015 0.268 0.462 0.263 1.096 0.62 2.17 0.51 0.167-0.018 0.303-0.056 0.443-0.09-0.092 0.5-0.191 0.979-0.292 1.44C30.525 74.456 30.414 74.483 30.272 74.499zM31.287 70.608c-0.025 0.021-0.057 0.047-0.082 0.066-0.308 0.273-0.476 0.424-0.934 0.473-0.46 0.049-0.656-0.063-1.015-0.269-0.462-0.262-1.097-0.621-2.172-0.509-1.076 0.112-1.62 0.597-2.018 0.948-0.308 0.273-0.478 0.424-0.936 0.473-0.458 0.05-0.655-0.063-1.014-0.268-0.239-0.136-0.526-0.295-0.894-0.404-0.022-0.43-0.054-0.865-0.092-1.304 0.011 0.005 0.02 0.01 0.03 0.016 0.402 0.229 0.935 0.531 1.775 0.531 0.125 0 0.257-0.007 0.396-0.021 1.076-0.111 1.62-0.597 2.017-0.948 0.308-0.273 0.478-0.423 0.936-0.472 0.46-0.045 0.656 0.062 1.014 0.267 0.462 0.264 1.097 0.625 2.17 0.511 0.376-0.039 0.683-0.126 0.943-0.234C31.378 69.852 31.335 70.232 31.287 70.608zM17.741 48.993c-0.204-0.684-0.661-1.229-1.288-1.538-0.628-0.308-1.339-0.338-2.005-0.081l-1.874 0.722c-0.436 0.166-1.075-0.031-1.339-0.416l-4.174-6.088c-0.229-0.334-0.153-0.85 0.163-1.103l4.596-3.685c0.612-0.491 1.806-1.123 2.556-1.353l8.18-2.51-1.822 1.171c-1.186 0.761-1.603 2.388-0.933 3.625l3.512 6.492c0.632 1.167 2.202 1.848 3.489 1.5l1.94-0.52c0.333-0.09 0.641 0.109 0.704 0.442 0.021 0.117 2.17 11.742 2.17 20.048 0 0.437-0.012 0.868-0.027 1.296-0.145 0.104-0.271 0.211-0.383 0.311-0.308 0.273-0.476 0.424-0.934 0.472-0.46 0.049-0.655-0.064-1.014-0.269-0.462-0.263-1.097-0.621-2.171-0.511-1.077 0.114-1.621 0.597-2.018 0.95-0.307 0.272-0.478 0.424-0.936 0.473-0.458 0.049-0.655-0.064-1.014-0.27-0.301-0.171-0.69-0.37-1.213-0.467C20.837 59.458 17.873 49.438 17.741 48.993zM20.979 85.38c-0.127-0.003-0.226-0.036-0.265-0.09-0.039-0.055-0.039-0.157-0.002-0.278 0.064-0.205 1.095-3.601 1.453-8.456 0.402 0.229 0.933 0.529 1.773 0.529 0.125 0 0.257-0.007 0.396-0.021 1.075-0.112 1.62-0.597 2.017-0.948 0.308-0.272 0.478-0.424 0.936-0.473 0.46-0.045 0.656 0.063 1.014 0.268 0.41 0.233 0.972 0.522 1.836 0.514-0.694 2.59-1.374 4.21-1.388 4.241-0.292 0.681-0.266 1.409 0.071 2 0.337 0.589 0.951 0.98 1.684 1.073 0.058 0.008 3.817 0.484 9.255 0.829C29.76 85.567 21.068 85.384 20.979 85.38zM76.651 68.841c-1.112 7.253 0.596 15.594 0.668 15.945 0.028 0.136 0.013 0.249-0.044 0.317-0.058 0.069-0.172 0.094-0.305 0.102-0.069-0.002-5.398-0.142-12.47-0.905 3.386-0.282 5.536-0.555 5.58-0.561 0.725-0.092 1.342-0.479 1.694-1.062s0.407-1.312 0.151-1.996c-0.029-0.079-2.956-8.003-2.956-14.982 0-3.689 0.592-8.939 1.159-13.145l9.975 2.331C78.837 59.118 77.273 64.778 76.651 68.841zM80.667 53.031l-10.27-2.402c0.051-0.351 0.1-0.691 0.148-1.017l10.426 2.439C80.874 52.362 80.773 52.687 80.667 53.031zM92.903 42.032l-5.451 6.511-2.165-0.978c-0.646-0.291-1.376-0.299-2.007-0.024-0.63 0.275-1.119 0.819-1.341 1.49-0.028 0.086-0.168 0.508-0.381 1.172l-10.723-2.507c0.195-1.25 0.326-2.025 0.33-2.056 0.057-0.327 0.337-0.513 0.663-0.421l1.4 0.39c1.269 0.356 2.864-0.287 3.541-1.404l3.922-6.47c0.741-1.225 0.365-2.852-0.84-3.627l-2.297-1.476 8.363 3.006c0.739 0.266 1.901 0.954 2.49 1.473l4.416 3.896C93.116 41.266 93.151 41.734 92.903 42.032z" fill="#ffffff" data-fill-palette-color="accent"></path></g></svg></g></svg></g><g></g></svg></g><defs></defs></svg><rect width="217.94994661545576" height="247.2" fill="none" stroke="none" visibility="hidden"></rect></g></svg></g></svg>